<svg width="12" height="13" viewBox="0 0 12 13" fill="none" xmlns="http://www.w3.org/2000/svg">
<path d="M4.14844 2.77344C3.98438 2.77344 3.85156 2.63281 3.85156 2.46875C3.85156 2.30469 3.98438 2.16406 4.14844 2.16406C4.32031 2.16406 4.45312 2.30469 4.45312 2.46875C4.45312 2.63281 4.32031 2.77344 4.14844 2.77344ZM7.44531 2.77344C7.27344 2.77344 7.14063 2.63281 7.14063 2.46875C7.14063 2.30469 7.27344 2.16406 7.44531 2.16406C7.60938 2.16406 7.74219 2.30469 7.74219 2.46875C7.74219 2.63281 7.60938 2.77344 7.44531 2.77344ZM1.10156 4.21094C0.65625 4.21094 0.296875 4.57031 0.296875 5.00781V8.36719C0.296875 8.8125 0.65625 9.17187 1.10156 9.17187C1.54688 9.17187 1.89844 8.8125 1.89844 8.36719V5.00781C1.89844 4.57031 1.53906 4.21094 1.10156 4.21094ZM9.38281 4.35937H2.21094V9.5625C2.21094 10.0391 2.59375 10.4219 3.07031 10.4219H3.64844L3.65625 12.1953C3.65625 12.6406 4.01562 13 4.45312 13C4.89844 13 5.25781 12.6406 5.25781 12.1953V10.4219H6.33594V12.1953C6.33594 12.6406 6.69531 13 7.14063 13C7.58594 13 7.94531 12.6406 7.94531 12.1953V10.4219H8.53125C9 10.4219 9.38281 10.0391 9.38281 9.5625V4.35937ZM7.57031 1.19531L8.125 0.171874C8.15625 0.117187 8.14063 0.0468746 8.08594 0.0156248C8.03125 -0.00781286 7.96094 0.00781167 7.92969 0.0624992L7.36719 1.09375C6.89063 0.882812 6.35938 0.765624 5.79688 0.765624C5.23438 0.765624 4.70313 0.882812 4.22656 1.09375L3.66406 0.0624992C3.63281 0.00781167 3.5625 -0.00781286 3.50781 0.0156248C3.45313 0.0468746 3.4375 0.117187 3.46875 0.171874L4.02344 1.19531C2.92188 1.75781 2.17969 2.83594 2.17969 4.07812H9.40625C9.40625 2.83594 8.66406 1.75781 7.57031 1.19531ZM11.2969 5.00781C11.2969 4.5625 10.9375 4.21094 10.4922 4.21094C10.0547 4.21094 9.69531 4.5625 9.69531 5.00781V8.36719C9.69531 8.8125 10.0547 9.17187 10.4922 9.17187C10.9375 9.17187 11.2969 8.8125 11.2969 8.36719V5.00781Z" fill="white"/>
</svg>
