<svg width="12" height="13" viewBox="0 0 12 13" fill="none" xmlns="http://www.w3.org/2000/svg">
<path d="M11.1953 9.49219C10.7344 9.35156 10.3203 9.02344 9.96094 8.50781C9.60156 7.99219 9.42188 7.40625 9.42188 6.76562C9.42188 6.17187 9.59375 5.63281 9.92969 5.14844C10.1172 4.875 10.4141 4.57031 10.8203 4.22656C10.5547 3.89844 10.2813 3.63281 10.0078 3.44531C9.52344 3.10937 8.96875 2.9375 8.34375 2.9375C7.96094 2.9375 7.50781 3.03125 6.99219 3.20312C6.47656 3.38281 6.10156 3.46875 5.875 3.46875C5.69531 3.46875 5.33594 3.39062 4.79688 3.23437C4.25 3.07812 3.79688 3 3.41406 3C2.51563 3 1.78125 3.375 1.19531 4.125C0.609375 4.88281 0.3125 5.85156 0.3125 7.04687C0.3125 8.32812 0.703125 9.63281 1.46094 10.9766C2.23438 12.3203 3.00781 13 3.8125 13C4.07031 13 4.41406 12.9141 4.84375 12.7344C5.26563 12.5625 5.64063 12.4766 5.95313 12.4766C6.27344 12.4766 6.67188 12.5547 7.13281 12.7266C7.60156 12.8906 7.96094 12.9766 8.22656 12.9766C8.89063 12.9766 9.5625 12.4688 10.2344 11.4453C10.6875 10.7656 11 10.1094 11.1953 9.49219ZM8.25781 0.328125C8.25781 0.273437 8.25 0.226562 8.25 0.171875C8.24219 0.124999 8.22656 0.0703119 8.21094 -9.53674e-07C7.30469 0.210937 6.64844 0.593749 6.25781 1.15625C5.86719 1.71875 5.66406 2.39062 5.64844 3.16406C6.01563 3.13281 6.28125 3.08594 6.46094 3.03125C6.74219 2.9375 7.02344 2.75 7.30469 2.46875C7.63281 2.14062 7.875 1.78125 8.03125 1.39062C8.17969 1.00781 8.25781 0.648437 8.25781 0.328125Z" fill="white"/>
</svg>
