<?xml version="1.0" standalone="no"?>
<!DOCTYPE svg PUBLIC "-//W3C//DTD SVG 20010904//EN"
 "http://www.w3.org/TR/2001/REC-SVG-20010904/DTD/svg10.dtd">
<svg version="1.0" xmlns="http://www.w3.org/2000/svg"
 width="268.000000pt" height="36.000000pt" viewBox="0 0 268.000000 36.000000"
 preserveAspectRatio="xMidYMid meet">

<g transform="translate(0.000000,36.000000) scale(0.100000,-0.100000)"
fill="#000000" stroke="none">
<path d="M20 171 l0 -171 120 0 c113 0 120 1 120 20 0 19 -7 20 -95 20 l-94 0
-3 148 c-3 144 -3 147 -25 150 l-23 3 0 -170z"/>
<path d="M365 317 c-58 -33 -87 -88 -82 -160 6 -96 69 -157 164 -157 159 0
237 161 135 282 -51 61 -145 76 -217 35z m179 -66 c61 -62 31 -177 -54 -202
-48 -14 -81 -6 -121 29 -21 19 -32 39 -36 69 -17 128 119 195 211 104z"/>
<path d="M772 323 c-18 -9 -45 -32 -60 -51 -23 -30 -27 -45 -27 -103 0 -75 16
-106 75 -146 46 -32 134 -32 181 0 36 24 79 96 79 134 0 22 -3 23 -85 23 -78
0 -85 -2 -85 -20 0 -18 7 -20 55 -20 46 0 55 -3 55 -18 0 -10 -14 -31 -31 -48
-25 -24 -39 -29 -80 -29 -46 0 -54 4 -85 37 -28 31 -34 46 -34 80 0 48 27 100
61 119 34 18 94 14 132 -9 26 -15 38 -17 46 -9 20 20 12 35 -32 56 -52 25
-119 27 -165 4z"/>
<path d="M1165 325 c-68 -37 -95 -83 -95 -163 0 -57 27 -104 79 -139 40 -27
126 -31 169 -9 119 62 129 218 19 300 -36 27 -131 33 -172 11z m142 -51 c80
-50 71 -179 -15 -220 -51 -24 -100 -13 -141 32 -31 34 -33 40 -29 90 9 102
101 151 185 98z"/>
<path d="M1430 315 c0 -24 2 -25 60 -25 l60 0 0 -145 0 -145 25 0 25 0 0 145
0 145 61 0 c57 0 60 1 57 23 -3 21 -6 22 -145 25 l-143 3 0 -26z"/>
<path d="M1756 313 c9 -16 41 -64 71 -108 50 -75 53 -83 53 -142 0 -56 2 -63
20 -63 18 0 20 7 20 63 0 60 2 66 65 159 36 54 65 102 65 108 0 6 -10 10 -22
8 -15 -2 -39 -27 -71 -73 -26 -38 -51 -71 -56 -73 -4 -1 -30 31 -57 73 -42 64
-53 75 -78 75 l-28 0 18 -27z"/>
<path d="M2107 333 c-4 -3 -7 -80 -7 -170 l0 -163 25 0 c23 0 24 3 27 68 l3
67 82 5 c102 6 128 25 128 94 0 53 -22 82 -74 96 -40 11 -174 14 -184 3z m195
-60 c22 -20 23 -51 1 -75 -13 -14 -31 -18 -85 -18 l-68 0 0 55 0 55 67 0 c48
0 72 -5 85 -17z"/>
<path d="M2430 170 l0 -170 125 0 c118 0 125 1 125 20 0 19 -7 20 -100 20
l-100 0 0 55 0 55 65 0 c58 0 65 2 65 20 0 18 -7 20 -65 20 l-65 0 0 50 0 50
100 0 100 0 0 25 0 25 -125 0 -125 0 0 -170z"/>
</g>
</svg>
